<mxfile host="drawio-plugin" modified="2022-08-10T08:06:17.221Z" agent="5.0 (Windows NT 6.2; Win64; x64) AppleWebKit/537.36 (KHTML, like Gecko) Chrome/89.0.4389.114 Safari/537.36" etag="iIRs2OhS13hkJdZEPHMr" version="15.5.4" type="embed"><diagram id="23iRSUPoRavnBvh4doch" name="Page-1"><mxGraphModel dx="1949" dy="751" grid="1" gridSize="10" guides="1" tooltips="1" connect="1" arrows="1" fold="1" page="1" pageScale="1" pageWidth="827" pageHeight="1169" math="0" shadow="0"><root><mxCell id="0"/><mxCell id="1" parent="0"/><mxCell id="2" value="页面初始化数据(请求数据)" style="rounded=0;whiteSpace=wrap;html=1;" parent="1" vertex="1"><mxGeometry x="54" y="120" width="210" height="60" as="geometry"/></mxCell><mxCell id="3" value="&lt;span&gt;storage&lt;/span&gt;" style="shape=parallelogram;perimeter=parallelogramPerimeter;whiteSpace=wrap;html=1;fixedSize=1;" parent="1" vertex="1"><mxGeometry x="99" y="275" width="120" height="60" as="geometry"/></mxCell><mxCell id="4" value="" style="endArrow=classic;html=1;rounded=0;exitX=0.5;exitY=1;exitDx=0;exitDy=0;" parent="1" source="2" target="3" edge="1"><mxGeometry width="50" height="50" relative="1" as="geometry"><mxPoint x="404" y="290" as="sourcePoint"/><mxPoint x="424" y="400" as="targetPoint"/></mxGeometry></mxCell><mxCell id="5" value="渲染页面(页面A)" style="rounded=0;whiteSpace=wrap;html=1;" parent="1" vertex="1"><mxGeometry x="54" y="480" width="210" height="60" as="geometry"/></mxCell><mxCell id="6" value="" style="endArrow=classic;html=1;rounded=0;entryX=0.5;entryY=0;entryDx=0;entryDy=0;exitX=0.5;exitY=1;exitDx=0;exitDy=0;" parent="1" source="3" target="5" edge="1"><mxGeometry width="50" height="50" relative="1" as="geometry"><mxPoint x="404" y="390" as="sourcePoint"/><mxPoint x="454" y="340" as="targetPoint"/></mxGeometry></mxCell><mxCell id="7" value="表单页面(渲染页面B)" style="rounded=0;whiteSpace=wrap;html=1;" parent="1" vertex="1"><mxGeometry x="484" y="480" width="150" height="60" as="geometry"/></mxCell><mxCell id="8" value="添加" style="rhombus;whiteSpace=wrap;html=1;" parent="1" vertex="1"><mxGeometry x="334" y="470" width="80" height="80" as="geometry"/></mxCell><mxCell id="9" value="" style="endArrow=classic;html=1;rounded=0;exitX=1;exitY=0.5;exitDx=0;exitDy=0;entryX=0;entryY=0.5;entryDx=0;entryDy=0;" parent="1" source="5" target="8" edge="1"><mxGeometry width="50" height="50" relative="1" as="geometry"><mxPoint x="404" y="490" as="sourcePoint"/><mxPoint x="454" y="440" as="targetPoint"/></mxGeometry></mxCell><mxCell id="10" value="" style="endArrow=classic;html=1;rounded=0;exitX=0.5;exitY=0;exitDx=0;exitDy=0;entryX=0.467;entryY=-0.033;entryDx=0;entryDy=0;entryPerimeter=0;" parent="1" source="8" target="7" edge="1"><mxGeometry width="50" height="50" relative="1" as="geometry"><mxPoint x="404" y="490" as="sourcePoint"/><mxPoint x="564" y="400" as="targetPoint"/><Array as="points"><mxPoint x="374" y="430"/><mxPoint x="554" y="430"/></Array></mxGeometry></mxCell><mxCell id="11" value="否（编辑）" style="text;html=1;strokeColor=none;fillColor=none;align=center;verticalAlign=middle;whiteSpace=wrap;rounded=0;" parent="1" vertex="1"><mxGeometry x="414" y="400" width="80" height="30" as="geometry"/></mxCell><mxCell id="12" value="" style="endArrow=classic;html=1;rounded=0;exitX=0.5;exitY=1;exitDx=0;exitDy=0;entryX=0.444;entryY=1.017;entryDx=0;entryDy=0;entryPerimeter=0;" parent="1" source="8" target="7" edge="1"><mxGeometry width="50" height="50" relative="1" as="geometry"><mxPoint x="404" y="490" as="sourcePoint"/><mxPoint x="584" y="590" as="targetPoint"/><Array as="points"><mxPoint x="374" y="590"/><mxPoint x="551" y="590"/></Array></mxGeometry></mxCell><mxCell id="13" value="是（添加）" style="text;html=1;strokeColor=none;fillColor=none;align=center;verticalAlign=middle;whiteSpace=wrap;rounded=0;" parent="1" vertex="1"><mxGeometry x="414" y="590" width="70" height="30" as="geometry"/></mxCell><mxCell id="14" value="提交" style="rounded=0;whiteSpace=wrap;html=1;" parent="1" vertex="1"><mxGeometry x="734" y="480" width="120" height="60" as="geometry"/></mxCell><mxCell id="15" value="" style="endArrow=classic;html=1;rounded=0;exitX=0.5;exitY=0;exitDx=0;exitDy=0;entryX=1;entryY=0.5;entryDx=0;entryDy=0;" parent="1" source="14" target="25" edge="1"><mxGeometry width="50" height="50" relative="1" as="geometry"><mxPoint x="504" y="490" as="sourcePoint"/><mxPoint x="584" y="390" as="targetPoint"/><Array as="points"><mxPoint x="794" y="305"/></Array></mxGeometry></mxCell><mxCell id="16" value="" style="endArrow=classic;html=1;rounded=0;entryX=0;entryY=0.5;entryDx=0;entryDy=0;exitX=1;exitY=0.5;exitDx=0;exitDy=0;" parent="1" source="7" target="14" edge="1"><mxGeometry width="50" height="50" relative="1" as="geometry"><mxPoint x="504" y="490" as="sourcePoint"/><mxPoint x="554" y="440" as="targetPoint"/></mxGeometry></mxCell><mxCell id="17" value="页面销毁" style="rounded=0;whiteSpace=wrap;html=1;" parent="1" vertex="1"><mxGeometry x="54" y="635" width="210" height="60" as="geometry"/></mxCell><mxCell id="18" value="" style="endArrow=classic;html=1;rounded=0;entryX=0;entryY=0.5;entryDx=0;entryDy=0;exitX=0;exitY=0.5;exitDx=0;exitDy=0;" parent="1" source="17" target="3" edge="1"><mxGeometry width="50" height="50" relative="1" as="geometry"><mxPoint x="504" y="490" as="sourcePoint"/><mxPoint x="554" y="440" as="targetPoint"/><Array as="points"><mxPoint x="14" y="665"/><mxPoint x="-26" y="665"/><mxPoint x="-26" y="305"/></Array></mxGeometry></mxCell><mxCell id="19" value="" style="endArrow=classic;html=1;rounded=0;exitX=0.5;exitY=1;exitDx=0;exitDy=0;entryX=0.5;entryY=0;entryDx=0;entryDy=0;" parent="1" source="5" target="17" edge="1"><mxGeometry width="50" height="50" relative="1" as="geometry"><mxPoint x="444" y="490" as="sourcePoint"/><mxPoint x="494" y="440" as="targetPoint"/></mxGeometry></mxCell><mxCell id="20" value="销毁" style="text;html=1;strokeColor=none;fillColor=none;align=center;verticalAlign=middle;whiteSpace=wrap;rounded=0;" parent="1" vertex="1"><mxGeometry x="14" y="275" width="60" height="30" as="geometry"/></mxCell><mxCell id="24" value="初始化" style="text;html=1;strokeColor=none;fillColor=none;align=center;verticalAlign=middle;whiteSpace=wrap;rounded=0;" parent="1" vertex="1"><mxGeometry x="159" y="210" width="60" height="30" as="geometry"/></mxCell><mxCell id="25" value="添加" style="rhombus;whiteSpace=wrap;html=1;" parent="1" vertex="1"><mxGeometry x="444" y="265" width="80" height="80" as="geometry"/></mxCell><mxCell id="29" value="" style="endArrow=classic;html=1;rounded=0;exitX=0;exitY=0;exitDx=0;exitDy=0;" parent="1" source="25" edge="1"><mxGeometry width="50" height="50" relative="1" as="geometry"><mxPoint x="444" y="290" as="sourcePoint"/><mxPoint x="214" y="285" as="targetPoint"/></mxGeometry></mxCell><mxCell id="30" value="" style="endArrow=classic;html=1;rounded=0;entryX=1;entryY=1;entryDx=0;entryDy=0;exitX=0;exitY=1;exitDx=0;exitDy=0;" parent="1" source="25" target="3" edge="1"><mxGeometry width="50" height="50" relative="1" as="geometry"><mxPoint x="444" y="290" as="sourcePoint"/><mxPoint x="494" y="240" as="targetPoint"/></mxGeometry></mxCell><mxCell id="31" value="是(push)" style="text;html=1;strokeColor=none;fillColor=none;align=center;verticalAlign=middle;whiteSpace=wrap;rounded=0;" parent="1" vertex="1"><mxGeometry x="254" y="260" width="60" height="30" as="geometry"/></mxCell><mxCell id="32" value="否(splice)" style="text;html=1;strokeColor=none;fillColor=none;align=center;verticalAlign=middle;whiteSpace=wrap;rounded=0;" parent="1" vertex="1"><mxGeometry x="254" y="330" width="60" height="30" as="geometry"/></mxCell><mxCell id="33" value="跳转" style="text;html=1;strokeColor=none;fillColor=none;align=center;verticalAlign=middle;whiteSpace=wrap;rounded=0;" parent="1" vertex="1"><mxGeometry x="264" y="480" width="60" height="30" as="geometry"/></mxCell><mxCell id="36" value="多页面" style="text;html=1;strokeColor=none;fillColor=none;align=center;verticalAlign=middle;whiteSpace=wrap;rounded=0;" vertex="1" parent="1"><mxGeometry x="290" y="40" width="60" height="30" as="geometry"/></mxCell><mxCell id="37" value="单页面" style="text;html=1;strokeColor=none;fillColor=none;align=center;verticalAlign=middle;whiteSpace=wrap;rounded=0;" vertex="1" parent="1"><mxGeometry x="290" y="960" width="60" height="30" as="geometry"/></mxCell><mxCell id="38" value="获取数据页面初始化" style="rounded=0;whiteSpace=wrap;html=1;" vertex="1" parent="1"><mxGeometry x="260" y="1000" width="120" height="60" as="geometry"/></mxCell><mxCell id="41" value="表单信息" style="shape=parallelogram;perimeter=parallelogramPerimeter;whiteSpace=wrap;html=1;fixedSize=1;" vertex="1" parent="1"><mxGeometry x="260" y="1150" width="120" height="60" as="geometry"/></mxCell><mxCell id="42" value="页面渲染(列表页表单A)&lt;br&gt;与页面B是兄弟关系" style="rounded=0;whiteSpace=wrap;html=1;" vertex="1" parent="1"><mxGeometry x="255" y="1320" width="130" height="60" as="geometry"/></mxCell><mxCell id="43" value="" style="endArrow=classic;html=1;rounded=0;exitX=0.5;exitY=1;exitDx=0;exitDy=0;" edge="1" parent="1" source="38" target="41"><mxGeometry width="50" height="50" relative="1" as="geometry"><mxPoint x="320" y="1230" as="sourcePoint"/><mxPoint x="370" y="1180" as="targetPoint"/></mxGeometry></mxCell><mxCell id="45" value="" style="endArrow=classic;html=1;rounded=0;exitX=0.5;exitY=1;exitDx=0;exitDy=0;entryX=0.5;entryY=0;entryDx=0;entryDy=0;" edge="1" parent="1" source="41" target="42"><mxGeometry width="50" height="50" relative="1" as="geometry"><mxPoint x="320" y="1230" as="sourcePoint"/><mxPoint x="370" y="1180" as="targetPoint"/></mxGeometry></mxCell><mxCell id="46" value="编辑" style="rhombus;whiteSpace=wrap;html=1;" vertex="1" parent="1"><mxGeometry x="280" y="1450" width="80" height="80" as="geometry"/></mxCell><mxCell id="47" value="" style="endArrow=classic;html=1;rounded=0;exitX=0.5;exitY=1;exitDx=0;exitDy=0;" edge="1" parent="1" source="42" target="46"><mxGeometry width="50" height="50" relative="1" as="geometry"><mxPoint x="320" y="1330" as="sourcePoint"/><mxPoint x="370" y="1280" as="targetPoint"/></mxGeometry></mxCell><mxCell id="48" value="" style="endArrow=classic;html=1;rounded=0;exitX=1;exitY=0.5;exitDx=0;exitDy=0;entryX=1;entryY=0.5;entryDx=0;entryDy=0;" edge="1" parent="1" source="46" target="52"><mxGeometry width="50" height="50" relative="1" as="geometry"><mxPoint x="320" y="1430" as="sourcePoint"/><mxPoint x="460" y="1650" as="targetPoint"/><Array as="points"><mxPoint x="460" y="1490"/><mxPoint x="460" y="1660"/></Array></mxGeometry></mxCell><mxCell id="49" value="" style="endArrow=classic;html=1;rounded=0;exitX=0;exitY=0.5;exitDx=0;exitDy=0;entryX=0;entryY=0.5;entryDx=0;entryDy=0;" edge="1" parent="1" source="46" target="52"><mxGeometry width="50" height="50" relative="1" as="geometry"><mxPoint x="320" y="1430" as="sourcePoint"/><mxPoint x="180" y="1670" as="targetPoint"/><Array as="points"><mxPoint x="180" y="1490"/><mxPoint x="180" y="1660"/></Array></mxGeometry></mxCell><mxCell id="50" value="是" style="text;html=1;strokeColor=none;fillColor=none;align=center;verticalAlign=middle;whiteSpace=wrap;rounded=0;" vertex="1" parent="1"><mxGeometry x="170" y="1450" width="120" height="30" as="geometry"/></mxCell><mxCell id="51" value="否(添加)" style="text;html=1;strokeColor=none;fillColor=none;align=center;verticalAlign=middle;whiteSpace=wrap;rounded=0;" vertex="1" parent="1"><mxGeometry x="370" y="1450" width="60" height="30" as="geometry"/></mxCell><mxCell id="52" value="表单(页面B)" style="rounded=0;whiteSpace=wrap;html=1;" vertex="1" parent="1"><mxGeometry x="264" y="1630" width="120" height="60" as="geometry"/></mxCell><mxCell id="53" value="" style="endArrow=classic;html=1;rounded=0;exitX=0;exitY=0;exitDx=0;exitDy=0;startArrow=none;" edge="1" parent="1" source="54"><mxGeometry width="50" height="50" relative="1" as="geometry"><mxPoint x="360" y="1740" as="sourcePoint"/><mxPoint x="380" y="1160" as="targetPoint"/><Array as="points"/></mxGeometry></mxCell><mxCell id="54" value="编辑" style="rhombus;whiteSpace=wrap;html=1;" vertex="1" parent="1"><mxGeometry x="610" y="1140" width="80" height="80" as="geometry"/></mxCell><mxCell id="55" value="" style="endArrow=none;html=1;rounded=0;exitX=0.45;exitY=1.033;exitDx=0;exitDy=0;exitPerimeter=0;" edge="1" parent="1" source="52" target="54"><mxGeometry width="50" height="50" relative="1" as="geometry"><mxPoint x="318" y="1691.98" as="sourcePoint"/><mxPoint x="370" y="1180" as="targetPoint"/><Array as="points"><mxPoint x="318" y="1760"/><mxPoint x="650" y="1760"/></Array></mxGeometry></mxCell><mxCell id="57" value="" style="endArrow=classic;html=1;rounded=0;exitX=0;exitY=1;exitDx=0;exitDy=0;" edge="1" parent="1" source="54"><mxGeometry width="50" height="50" relative="1" as="geometry"><mxPoint x="320" y="1280" as="sourcePoint"/><mxPoint x="360" y="1200" as="targetPoint"/></mxGeometry></mxCell><mxCell id="58" value="是add" style="text;html=1;strokeColor=none;fillColor=none;align=center;verticalAlign=middle;whiteSpace=wrap;rounded=0;" vertex="1" parent="1"><mxGeometry x="444" y="1130" width="60" height="30" as="geometry"/></mxCell><mxCell id="59" value="否splice(根据 list 索引替换原有值)" style="text;html=1;strokeColor=none;fillColor=none;align=center;verticalAlign=middle;whiteSpace=wrap;rounded=0;" vertex="1" parent="1"><mxGeometry x="380" y="1200" width="190" height="30" as="geometry"/></mxCell><mxCell id="60" value="提交" style="rounded=0;whiteSpace=wrap;html=1;direction=west;" vertex="1" parent="1"><mxGeometry y="1320" width="120" height="60" as="geometry"/></mxCell><mxCell id="67" value="" style="endArrow=classic;html=1;rounded=0;entryX=0;entryY=0.5;entryDx=0;entryDy=0;exitX=0;exitY=0.5;exitDx=0;exitDy=0;" edge="1" parent="1" source="42" target="60"><mxGeometry width="50" height="50" relative="1" as="geometry"><mxPoint x="320" y="1350" as="sourcePoint"/><mxPoint x="370" y="1300" as="targetPoint"/></mxGeometry></mxCell><mxCell id="68" value="" style="endArrow=classic;html=1;rounded=0;exitX=0.5;exitY=1;exitDx=0;exitDy=0;entryX=0;entryY=0.5;entryDx=0;entryDy=0;" edge="1" parent="1" source="60" target="38"><mxGeometry width="50" height="50" relative="1" as="geometry"><mxPoint x="320" y="1250" as="sourcePoint"/><mxPoint x="70" y="1030" as="targetPoint"/><Array as="points"><mxPoint x="60" y="1030"/></Array></mxGeometry></mxCell></root></mxGraphModel></diagram></mxfile>